<svg width="494" height="178" viewBox="0 0 494 178" fill="none" xmlns="http://www.w3.org/2000/svg">
<path d="M82.3229 132.334C82.684 132.334 83.0451 132.243 83.4062 132.063C83.7674 131.882 84.0382 131.702 84.2187 131.521L128.635 87.1043C129.719 86.021 130.51 84.8023 131.008 83.4481C131.506 82.0939 131.754 80.7398 131.75 79.3856C131.75 77.9411 131.503 76.5635 131.008 75.2527C130.513 73.9418 129.722 72.7917 128.635 71.8022L105.615 48.7814C104.622 47.6981 103.47 46.9091 102.159 46.4143C100.848 45.9196 99.4739 45.6704 98.0367 45.6668C96.6825 45.6668 95.3283 45.916 93.9742 46.4143C92.62 46.9127 91.4012 47.7017 90.3179 48.7814L88.8283 50.271L98.8492 60.4272C100.203 61.6911 101.196 63.1356 101.828 64.7606C102.46 66.3856 102.776 68.1009 102.776 69.9064C102.776 73.6981 101.491 76.8813 98.9196 79.456C96.3485 82.0307 93.1653 83.3163 89.37 83.3127C87.5644 83.3127 85.8275 82.9967 84.1592 82.3647C82.4908 81.7328 81.0229 80.7849 79.7554 79.521L69.5937 69.5002L45.8958 93.1981C45.625 93.4689 45.4228 93.7632 45.2892 94.081C45.1555 94.3988 45.0869 94.7364 45.0833 95.0939C45.0833 95.8161 45.3542 96.4716 45.8958 97.0602C46.4375 97.6488 47.0694 97.9413 47.7917 97.9377C48.1528 97.9377 48.5139 97.8474 48.875 97.6668C49.2361 97.4863 49.5069 97.3057 49.6875 97.1252L68.1042 78.7085L75.6875 86.2918L57.4062 104.708C57.1354 104.979 56.9332 105.274 56.7996 105.591C56.666 105.909 56.5974 106.247 56.5937 106.604C56.5937 107.327 56.8646 107.959 57.4062 108.5C57.9479 109.042 58.5799 109.313 59.3021 109.313C59.6632 109.313 60.0243 109.222 60.3854 109.042C60.7465 108.861 61.0174 108.681 61.1979 108.5L79.6146 90.2189L87.1979 97.8022L68.9167 116.219C68.6458 116.399 68.4436 116.67 68.31 117.031C68.1764 117.393 68.1078 117.754 68.1042 118.115C68.1042 118.837 68.375 119.469 68.9167 120.011C69.4583 120.552 70.0903 120.823 70.8125 120.823C71.1736 120.823 71.513 120.754 71.8308 120.617C72.1486 120.48 72.4411 120.278 72.7083 120.011L91.125 101.729L98.7083 109.313L80.2917 127.729C80.0208 128 79.8186 128.293 79.685 128.607C79.5514 128.921 79.4828 129.26 79.4792 129.625C79.4792 130.347 79.7735 130.979 80.3621 131.521C80.9507 132.063 81.6043 132.334 82.3229 132.334ZM82.1875 143.167C78.8472 143.167 75.8915 142.062 73.3204 139.852C70.7493 137.642 69.2362 134.865 68.7812 131.521C65.7118 131.07 63.1389 129.806 61.0625 127.729C58.9861 125.653 57.7222 123.08 57.2708 120.011C54.2014 119.559 51.6519 118.274 49.6225 116.154C47.593 114.034 46.3508 111.483 45.8958 108.5C42.4653 108.049 39.6667 106.559 37.5 104.031C35.3333 101.504 34.25 98.5245 34.25 95.0939C34.25 93.2884 34.5894 91.5514 35.2683 89.8831C35.9472 88.2147 36.9168 86.7468 38.1771 85.4793L69.5937 54.1981L87.3333 71.9377C87.5139 72.2085 87.7847 72.4125 88.1458 72.5497C88.5069 72.687 88.868 72.7538 89.2292 72.7502C90.0417 72.7502 90.7187 72.5028 91.2604 72.0081C91.8021 71.5134 92.0729 70.8579 92.0729 70.0418C92.0729 69.6807 92.0043 69.3196 91.8671 68.9585C91.7299 68.5974 91.5276 68.3266 91.2604 68.146L71.8958 48.7814C70.9028 47.6981 69.7526 46.9091 68.4454 46.4143C67.1382 45.9196 65.7605 45.6704 64.3125 45.6668C62.9583 45.6668 61.6042 45.916 60.25 46.4143C58.8958 46.9127 57.6771 47.7017 56.5937 48.7814L37.5 68.0106C36.6875 68.8231 36.0104 69.771 35.4687 70.8543C34.9271 71.9377 34.566 73.021 34.3854 74.1043C34.2048 75.1877 34.2048 76.2945 34.3854 77.4247C34.566 78.555 34.9271 79.6149 35.4687 80.6043L27.6146 88.4585C26.0798 86.3821 24.9514 84.1035 24.2292 81.6227C23.5069 79.1418 23.2361 76.6357 23.4167 74.1043C23.5972 71.5766 24.2292 69.1174 25.3125 66.7268C26.3958 64.3363 27.8854 62.1913 29.7812 60.2918L48.875 41.1981C51.0417 39.1217 53.4575 37.5418 56.1225 36.4585C58.7875 35.3752 61.5175 34.8335 64.3125 34.8335C67.1111 34.8335 69.8429 35.3752 72.5079 36.4585C75.1729 37.5418 77.5418 39.1217 79.6146 41.1981L81.1042 42.6877L82.5937 41.1981C84.7604 39.1217 87.1762 37.5418 89.8412 36.4585C92.5062 35.3752 95.2362 34.8335 98.0312 34.8335C100.83 34.8335 103.562 35.3752 106.227 36.4585C108.892 37.5418 111.261 39.1217 113.333 41.1981L136.219 64.0835C138.295 66.1599 139.875 68.5523 140.958 71.2606C142.042 73.9689 142.583 76.7224 142.583 79.521C142.583 82.3196 142.042 85.0514 140.958 87.7164C139.875 90.3814 138.295 92.7503 136.219 94.8231L91.8021 139.104C90.5382 140.368 89.0721 141.361 87.4037 142.083C85.7354 142.806 83.9967 143.167 82.1875 143.167Z" fill="white"/>
<path d="M161.407 106V66.1818H172.113V73.1293H172.528C173.254 70.6579 174.472 68.7914 176.183 67.5298C177.894 66.2509 179.864 65.6115 182.094 65.6115C182.647 65.6115 183.243 65.6461 183.882 65.7152C184.522 65.7843 185.084 65.8794 185.567 66.0004V75.7994C185.049 75.6438 184.332 75.5056 183.416 75.3846C182.5 75.2636 181.662 75.2031 180.901 75.2031C179.277 75.2031 177.825 75.5574 176.546 76.266C175.285 76.9573 174.282 77.9251 173.539 79.1694C172.813 80.4137 172.45 81.8481 172.45 83.4727V106H161.407ZM215.6 106.778C211.504 106.778 207.978 105.948 205.023 104.289C202.085 102.613 199.821 100.245 198.231 97.1861C196.641 94.1098 195.846 90.4719 195.846 86.2724C195.846 82.1765 196.641 78.5818 198.231 75.4883C199.821 72.3948 202.059 69.9839 204.945 68.2557C207.849 66.5275 211.253 65.6634 215.159 65.6634C217.786 65.6634 220.231 66.0868 222.495 66.9336C224.777 67.7631 226.764 69.0161 228.458 70.6925C230.169 72.3688 231.499 74.4773 232.45 77.0178C233.401 79.541 233.876 82.4962 233.876 85.8835V88.9165H200.253V82.0728H223.481C223.481 80.4828 223.135 79.0743 222.444 77.8473C221.752 76.6203 220.793 75.6611 219.566 74.9698C218.356 74.2612 216.948 73.907 215.341 73.907C213.664 73.907 212.178 74.2958 210.882 75.0735C209.603 75.8339 208.601 76.8622 207.875 78.1584C207.149 79.4373 206.777 80.863 206.76 82.4357V88.9425C206.76 90.9126 207.123 92.6149 207.849 94.0494C208.592 95.4838 209.638 96.5898 210.986 97.3675C212.334 98.1452 213.932 98.5341 215.781 98.5341C217.008 98.5341 218.132 98.3613 219.151 98.0156C220.171 97.67 221.044 97.1515 221.77 96.4602C222.495 95.7689 223.048 94.9221 223.429 93.9197L233.642 94.5938C233.124 97.0478 232.061 99.1908 230.454 101.023C228.864 102.837 226.807 104.254 224.284 105.274C221.778 106.277 218.883 106.778 215.6 106.778ZM270.525 66.1818V74.4773H245.95V66.1818H270.525ZM251.575 106V63.3043C251.575 60.4182 252.137 58.0246 253.26 56.1236C254.401 54.2225 255.956 52.7968 257.926 51.8462C259.897 50.8957 262.135 50.4205 264.641 50.4205C266.334 50.4205 267.881 50.5501 269.281 50.8093C270.698 51.0685 271.752 51.3018 272.443 51.5092L270.473 59.8047C270.041 59.6664 269.505 59.5368 268.866 59.4158C268.244 59.2949 267.604 59.2344 266.948 59.2344C265.323 59.2344 264.191 59.6146 263.552 60.375C262.912 61.1181 262.593 62.1637 262.593 63.5117V106H251.575ZM302.022 106.778C297.926 106.778 294.401 105.948 291.445 104.289C288.507 102.613 286.244 100.245 284.654 97.1861C283.064 94.1098 282.269 90.4719 282.269 86.2724C282.269 82.1765 283.064 78.5818 284.654 75.4883C286.244 72.3948 288.482 69.9839 291.368 68.2557C294.271 66.5275 297.676 65.6634 301.581 65.6634C304.208 65.6634 306.654 66.0868 308.918 66.9336C311.199 67.7631 313.186 69.0161 314.88 70.6925C316.591 72.3688 317.922 74.4773 318.872 77.0178C319.823 79.541 320.298 82.4962 320.298 85.8835V88.9165H286.676V82.0728H309.903C309.903 80.4828 309.557 79.0743 308.866 77.8473C308.175 76.6203 307.215 75.6611 305.988 74.9698C304.779 74.2612 303.37 73.907 301.763 73.907C300.087 73.907 298.6 74.2958 297.304 75.0735C296.025 75.8339 295.023 76.8622 294.297 78.1584C293.571 79.4373 293.2 80.863 293.182 82.4357V88.9425C293.182 90.9126 293.545 92.6149 294.271 94.0494C295.014 95.4838 296.06 96.5898 297.408 97.3675C298.756 98.1452 300.354 98.5341 302.204 98.5341C303.431 98.5341 304.554 98.3613 305.574 98.0156C306.593 97.67 307.466 97.1515 308.192 96.4602C308.918 95.7689 309.471 94.9221 309.851 93.9197L320.065 94.5938C319.546 97.0478 318.483 99.1908 316.876 101.023C315.286 102.837 313.23 104.254 310.706 105.274C308.201 106.277 305.306 106.778 302.022 106.778ZM335.535 106V66.1818H346.241V73.1293H346.656C347.382 70.6579 348.6 68.7914 350.311 67.5298C352.022 66.2509 353.992 65.6115 356.222 65.6115C356.775 65.6115 357.371 65.6461 358.01 65.7152C358.65 65.7843 359.211 65.8794 359.695 66.0004V75.7994C359.177 75.6438 358.46 75.5056 357.544 75.3846C356.628 75.2636 355.79 75.2031 355.029 75.2031C353.405 75.2031 351.953 75.5574 350.674 76.266C349.412 76.9573 348.41 77.9251 347.667 79.1694C346.941 80.4137 346.578 81.8481 346.578 83.4727V106H335.535ZM373.435 106V66.1818H384.478V106H373.435ZM378.982 61.049C377.341 61.049 375.932 60.5046 374.757 59.4158C373.599 58.3098 373.02 56.9877 373.02 55.4496C373.02 53.9287 373.599 52.6239 374.757 51.5352C375.932 50.4291 377.341 49.8761 378.982 49.8761C380.624 49.8761 382.024 50.4291 383.182 51.5352C384.357 52.6239 384.945 53.9287 384.945 55.4496C384.945 56.9877 384.357 58.3098 383.182 59.4158C382.024 60.5046 380.624 61.049 378.982 61.049ZM422.767 66.1818V74.4773H398.192V66.1818H422.767ZM403.817 106V63.3043C403.817 60.4182 404.379 58.0246 405.502 56.1236C406.643 54.2225 408.198 52.7968 410.168 51.8462C412.139 50.8957 414.377 50.4205 416.883 50.4205C418.576 50.4205 420.123 50.5501 421.523 50.8093C422.94 51.0685 423.994 51.3018 424.685 51.5092L422.715 59.8047C422.283 59.6664 421.748 59.5368 421.108 59.4158C420.486 59.2949 419.846 59.2344 419.19 59.2344C417.565 59.2344 416.433 59.6146 415.794 60.375C415.154 61.1181 414.835 62.1637 414.835 63.5117V106H403.817ZM444.362 120.932C442.962 120.932 441.648 120.819 440.421 120.595C439.211 120.387 438.209 120.12 437.414 119.791L439.903 111.548C441.199 111.945 442.365 112.161 443.402 112.196C444.457 112.23 445.364 111.988 446.124 111.47C446.902 110.951 447.533 110.07 448.017 108.826L448.665 107.141L434.381 66.1818H445.995L454.238 95.4233H454.653L462.974 66.1818H474.666L459.19 110.303C458.447 112.446 457.436 114.313 456.157 115.903C454.895 117.51 453.296 118.746 451.361 119.61C449.425 120.491 447.092 120.932 444.362 120.932Z" fill="white"/>
</svg>
